<?xml version="1.0"?>
<svg viewBox="0 0 1024 1024" xmlns="http://www.w3.org/2000/svg" xmlns:svg="http://www.w3.org/2000/svg" class="icon" version="1.1">

 <g class="layer">
  <title>Layer 1</title>
  <g id="svg_56">
   <g id="svg_49">
    <rect fill="#ffff56" fill-opacity="null" height="0" id="svg_53" stroke="null" stroke-dasharray="null" stroke-linecap="null" stroke-linejoin="round" stroke-opacity="null" transform="rotate(-1.15486, -78.3557, 35.5002)" width="2.6" x="-195.69" y="387.13"/>
    <g id="svg_55">
     <path d="m230.44,543.88c12.89,13.19 45.04,41.56 45.12,41.02c0.08,-0.54 -6.46,6.67 -6.38,6.13c0.08,-0.54 -43.8,-41.79 -43.72,-42.33" fill="#dd7e25" id="svg_50" stroke="null" stroke-dasharray="null" stroke-linecap="null" stroke-linejoin="round" stroke-opacity="null" transform="rotate(-1.15486, 250.512, 567.468)"/>
     <rect fill="#ffffff" height="63.04" id="svg_51" rx="4" ry="4" stroke="null" stroke-linecap="round" stroke-linejoin="bevel" stroke-opacity="null" stroke-width="0" transform="rotate(-46.9359, 189.878, 569.972) matrix(0.999773, -0.0212912, 0.0212912, 0.999773, -54.7051, 183.649)" width="91.9" x="190.35" y="359.93"/>
     <ellipse cx="190.96" cy="569.9" fill="#ff0f0f" id="svg_54" rx="20" ry="20" stroke="null" stroke-dasharray="null" stroke-linecap="null" stroke-linejoin="round" stroke-opacity="null" transform="rotate(-46.9359, 190.964, 569.899)"/>
    </g>
   </g>
   <g id="svg_48">
    <path d="m282.08,449.67c-0.86,18.42 0.33,61.28 0.77,60.97c0.45,-0.31 -9.28,-0.17 -8.84,-0.49c0.45,-0.31 0.7,-60.53 1.14,-60.84" fill="#dd7e25" id="svg_47" stroke="null" stroke-dasharray="null" stroke-linecap="null" stroke-linejoin="round" stroke-opacity="null" transform="rotate(-61.505, 278.432, 479.98)"/>
    <rect fill="#e84040" height="63.04" id="svg_42" rx="4" ry="4" stroke="null" stroke-linecap="round" stroke-linejoin="bevel" stroke-opacity="null" stroke-width="0" transform="matrix(0.477082, -0.878859, 0.878859, 0.477082, -173.916, 491.22)" width="90" x="221.41" y="315.14"/>
    <path d="m238.33,416.54l14.44,0l4.46,-13.56l4.46,13.56l14.44,0l-11.68,8.38l4.46,13.56l-11.68,-8.38l-11.68,8.38l4.46,-13.56l-11.68,-8.38z" fill="#ffff56" id="svg_43" stroke="null" stroke-dasharray="null" stroke-linecap="null" stroke-linejoin="round" stroke-opacity="null" transform="rotate(-51.3054, 257.231, 420.736)"/>
   </g>
   <path d="m416.71,793.68l22.54,-21.55a2.28,2.51 0 0 0 -0.14,-3.92l-11.75,-9.63a2.36,2.6 0 0 0 -2.94,0.12c-23.05,19.79 -34.83,29.82 -35.34,30.11l-12.55,7.19a9.84,10.85 0 0 0 -3.27,3.04a9.65,10.64 0 0 0 1.94,15.04l55.56,45.89c0.7,0.57 1.63,0.67 2.41,0.26l11.61,-6.1c0.71,-0.37 1.11,-1.4 1.2,-3.08c-4.01,-12.99 -14.2,-27.35 -20.56,-34.16c-1.63,-1.74 -4.43,-4.34 -8.4,-7.82a9.06,9.99 0 0 1 -1.49,-14.03c0.35,-0.5 0.74,-0.95 1.17,-1.36z" fill="#FFC62E" id="svg_1" transform="rotate(-26.9067, 408.635, 809.274)"/>
   <path d="m385.53,787.24a1996.8,1996.8 0 0 0 7.37,-5.67c6.47,-5 16.04,-12.42 28.7,-22.27a10.09,10.09 0 0 1 12.41,-0.3l12.96,9.62a10,10 0 0 1 0.59,15.6l-24.86,21.55a2.5,2.5 0 0 0 0.09,3.85c4.56,3.61 7.81,6.36 9.84,8.32c9.66,9.36 20.27,24.54 24.55,37.11l0.48,1.4l-0.09,1.48c-0.25,4.12 -1.72,7.55 -5.58,9.39l-12.81,6.1a10.1,10.1 0 0 1 -10.37,-1.02l-61.27,-45.88a18.13,18.13 0 0 1 -3.63,-25.61a18.35,18.35 0 0 1 6.12,-5.13l13.41,-6.97c0.63,-0.47 1.26,-0.95 2.09,-1.57zm45.68,-16.44l-0.21,0.16c0.07,-0.05 0.14,-0.11 0.21,-0.16zm-9.01,57.89c-1.58,-1.52 -4.51,-4 -8.71,-7.33a17.48,17.48 0 0 1 -0.61,-26.91l20.18,-17.49l-4.99,-3.71c-27.73,21.57 -36.09,28.01 -37.29,28.64l-13.84,7.19a3.36,3.36 0 0 0 -1.12,0.94c-1.08,1.41 -0.8,3.38 0.68,4.48l58.91,44.12l5.95,-2.84c-4.2,-9.35 -12.14,-20.28 -19.16,-27.09z" fill="#524F75" id="svg_2" transform="rotate(-23.7706, 408.92, 815.708)"/>
   <path d="m520.67,799.85l-24.29,-37a2.51,2.51 0 0 0 -3.25,-0.87l-14.29,7.35c-1.41,0.92 -1.73,2.5 -0.96,3.67l41.25,76.41a10.91,10.91 0 0 0 2.45,3.95a10.69,10.69 0 0 0 15.21,0.15l54.83,-54.33c1.05,-1.21 0.94,-2.82 -0.11,-3.74c-7.29,-6.08 -11.19,-9.08 -11.69,-8.99c-13.89,2.54 -24.76,6.85 -32.62,12.94a74.75,74.75 0 0 0 -4.01,3.4l0,0a14.99,14.99 0 0 1 -22.52,-2.94z" fill="#FFC62E" id="svg_3" transform="rotate(26.7473, 534.909, 809.158)"/>
   <path d="m474.73,760.47l0.33,-0.22l14.64,-7.53a10.01,10.01 0 0 1 12.94,3.41l24.29,37a7.49,7.49 0 0 0 11.26,1.47a81,81 0 0 1 4.42,-3.74c8.91,-6.91 20.89,-11.65 35.87,-14.38a7.35,7.35 0 0 1 3.75,0.25c0.49,0.15 0.91,0.33 1.32,0.54c0.46,0.24 0.92,0.51 1.42,0.84c0.72,0.47 1.61,1.13 2.72,1.98c2.04,1.57 4.91,3.89 8.76,7.11c4.24,3.72 4.51,10.05 0.83,14.29l-0.38,0.41l-54.83,54.32a18.19,18.19 0 0 1 -25.86,-0.23a18.2,18.2 0 0 1 -3.91,-6.06l-40.91,-75.77c-2.82,-4.71 -1.28,-10.66 3.34,-13.69zm77.06,42.24c-0.88,0.68 -2.09,1.71 -3.6,3.07c-9.25,8.27 -23.46,7.49 -31.74,-1.76a22.14,22.14 0 0 1 -2.04,-2.65l-21.84,-33.26l-5.8,2.98l39.24,72.68l0.19,0.55c0.17,0.46 0.43,0.88 0.77,1.23a3.2,3.2 0 0 0 4.56,0.04l50.95,-50.49a171.3,171.3 0 0 0 -3.91,-3.12c-0.09,-0.06 -0.17,-0.13 -0.25,-0.19c-11.41,2.36 -20.23,6.04 -26.53,10.92z" fill="#524F75" id="svg_4" transform="rotate(26.7549, 534.907, 806.56)"/>
   <path d="m408.23,547.49c-77.7,-6.42 -104.8,-21.89 -110.01,-42.77c-5.2,-20.88 35.48,-43.55 109.85,-65.3" fill="#3D96C8" id="svg_5"/>
   <path d="m410.61,537.49c-69.14,-2.08 -99.5,-13.14 -105.16,-31.65c-4.22,-13.8 31.12,-37.02 101.59,-61.7a7.49,7.49 0 1 0 -4.96,-14.15c-79.5,27.85 -119.03,53.82 -110.96,80.23c8.25,27 43.92,39.99 119.04,42.24a7.49,7.49 0 1 0 0.45,-14.97z" fill="#524F75" id="svg_6"/>
   <path d="m314.78,746.51c28.68,17.62 90.11,29.19 142.22,29.68c21.89,0.2 61.47,-4.55 118.73,-14.25c33.99,-9.53 58.63,-22.16 62.59,-71.09c5.77,-71.15 6.71,-117.51 2.82,-139.1c-3.15,-17.48 -8.7,-48.07 -16.66,-91.76c-11.42,-62.78 -65.83,-108.38 -129.31,-108.38l-29.67,0c-63.06,0 -117.23,45.01 -129.11,107.28l-28.73,161.43c-2.42,13.58 -15.39,22.63 -28.97,20.22a25.03,25.03 0 0 1 -8.71,-3.32l-6.36,-3.91c-5.56,-2.87 -15.52,1.08 -19.34,7.02c-3.81,5.93 4.33,35.92 10.8,47.18c6.48,11.24 31.02,41.38 59.7,59z" fill="#3D96C8" id="svg_7"/>
   <path d="m313.46,750.3c-25.09,-15.41 -52.12,-44.02 -62.27,-61.66c-8.47,-14.72 -16.21,-46.25 -10.61,-54.97c5.85,-9.09 19.9,-14.35 29.07,-9.62l6.85,4.19a17.48,17.48 0 0 0 26.38,-11.82l28.75,-161.53c12.55,-65.79 69.81,-113.37 136.47,-113.37l29.67,0c67.1,0 124.61,48.2 136.68,114.54c7.96,43.7 13.51,74.29 16.66,91.77c4.05,22.46 3.1,69.22 -2.72,141.03c-2.03,25 -9.33,42.66 -22.32,55.12c-10.8,10.36 -24.29,16.58 -45.72,22.58c-58.45,9.95 -98.36,14.73 -120.83,14.52c-55.59,-0.51 -117.06,-12.96 -146.06,-30.78zm-59.94,-104.92c0.28,3.27 1.04,7.5 2.18,12.16c2.28,9.26 5.72,18.84 8.48,23.63c8.94,15.53 34.23,42.3 57.13,56.36c26.24,16.13 85.24,28.07 138.36,28.57c21.27,0.19 60.39,-4.49 117.02,-14.08c19.02,-5.36 30.46,-10.65 39.01,-18.86c10.12,-9.72 16,-23.94 17.75,-45.52c5.72,-70.47 6.64,-116.44 2.91,-137.16c-3.15,-17.48 -8.7,-48.06 -16.65,-91.75c-10.78,-59.21 -62.09,-102.22 -121.94,-102.22l-29.67,0c-59.46,0 -110.54,42.45 -121.73,101.1l-28.74,161.43c-3.14,17.66 -20,29.42 -37.65,26.28a32.4,32.4 0 0 1 -11.33,-4.32l-6.01,-3.69c-1.77,-0.66 -7,1.29 -9.16,4.05c-0.12,1.21 -0.1,2.47 0.04,4.02z" fill="#524F75" id="svg_8"/>
   <path d="m620.13,461.13a52914.73,52914.73 0 0 1 16.19,88.54c3.79,20.83 2.88,65.57 -2.73,134.22c-3.86,47.21 -27.81,59.4 -60.87,68.6c-55.69,9.35 -94.17,13.94 -115.47,13.74c-14.28,-0.13 -30.21,-1.51 -46.18,-3.64a38.42,38.42 0 0 1 8.38,-7.48c24.84,-16.37 40.28,-63.52 42.71,-78.3c4.94,-30.06 5.45,-66.57 5.12,-172.68c-0.18,-56.56 40.43,-105.01 96.15,-114.7a85.61,85.61 0 0 1 15.18,-1.28a127.17,127.17 0 0 1 41.52,72.98z" fill="#FFFFFF" id="svg_9"/>
   <path d="m592.41,456.55a45.31,36.24 90 1 0 72.48,0a45.31,36.24 90 1 0 -72.48,0z" fill="#FFFFFF" id="svg_10" transform="matrix(1, 0, 0, 1, 0, 0)"/>
   <path d="m630.16,487.37c23.35,0 41.61,-19.52 41.61,-43s-18.27,-43 -41.61,-43c-23.34,0 -41.61,19.52 -41.61,43s18.27,43 41.61,43zm0,-14.76c-13.48,0 -25.07,-12.38 -25.07,-28.24s11.58,-28.23 25.07,-28.23c13.48,0 25.07,12.37 25.07,28.23s-11.58,28.24 -25.07,28.24z" fill="#524F75" id="svg_11"/>
   <path d="m637.41,451.87c-1.71,2.23 -4.23,3.64 -7.04,3.64c-5.14,0 -9.3,-4.7 -9.3,-10.5s4.16,-10.49 9.3,-10.49c5.07,0 9.2,4.58 9.3,10.28l-6.89,1.13l4.63,5.95l0,-0.01z" fill="#232323" id="svg_12"/>
   <path d="m600.18,567.69c12.43,-1 23.18,-1.38 42.38,-15.98c8,-6.09 22.5,-18.33 29.27,-26.73c6.41,-7.94 4.36,-17.55 0,-23.91c-8.96,-13.09 -22.37,-13.84 -37.56,-18.74c-5.83,-1.88 -19.29,-5.88 -36.52,-9.27c4.4,13.6 6.35,29.98 5.83,49.16c-0.46,16.73 -1.6,31.89 -3.4,45.47z" fill="#FFC62E" id="svg_13"/>
   <path d="m611.17,515.07c1.7,-14.58 1.82,-27.8 0.36,-39.68c9.36,2.96 17.74,6.03 24.42,8.78c1.85,0.75 3.74,1.48 5.94,2.29c0.84,0.31 1.71,0.62 2.82,1.02l2.7,0.97c12.94,4.66 17.93,7.72 21.94,14.61c3.08,5.27 2.95,10.87 -0.93,14.77c-6.09,6.14 -19.92,16.09 -31.04,22.87c-12.86,7.84 -21.23,10.5 -31.85,10.97c2.23,-11.21 4.1,-23.41 5.64,-36.6zm-14.97,51.62l1.63,0.02c2.24,0.02 3.42,0.03 4.79,0.02c14.79,-0.12 26.13,-3.22 42.56,-13.24c12.07,-7.35 26.74,-17.91 33.88,-25.11c9.15,-9.22 9.47,-22.2 3.23,-32.88c-6.29,-10.76 -13.81,-15.39 -29.81,-21.15l-2.72,-0.98c-1.08,-0.38 -1.91,-0.68 -2.71,-0.98a144.53,144.53 0 0 1 -5.4,-2.09c-9.85,-4.04 -23.01,-8.68 -37.61,-12.8c-5.5,-1.55 -10.65,3.4 -9.31,8.97c3.13,13.01 3.67,28.64 1.56,46.87c-1.91,16.38 -4.35,31.11 -7.33,44.2a7.49,7.49 0 0 0 7.24,9.15z" fill="#524F75" id="svg_14"/>
   <path d="m516.28,468.69a45.31,34.68 90 1 0 72.48,0a45.31,34.68 90 1 0 -72.48,0z" fill="#FFFFFF" id="svg_15"/>
   <path d="m551.35,509.95c26.75,0 48.17,-21 48.17,-46.63c0,-25.62 -21.42,-46.63 -48.17,-46.63c-26.75,0 -48.17,21 -48.17,46.63c0,25.62 21.42,46.63 48.17,46.63zm0,-13.49c-18.17,0 -33.18,-14.71 -33.18,-33.14c0,-18.43 15.01,-33.15 33.18,-33.15s33.18,14.72 33.18,33.15c0,18.43 -15.01,33.14 -33.18,33.14z" fill="#524F75" id="svg_16" transform="matrix(1, 0, 0, 1, 0, 0)"/>
   <path d="m570.05,470.29c-2.35,2.55 -5.81,4.18 -9.68,4.18c-7.06,0 -12.79,-5.4 -12.79,-12.05s5.73,-12.05 12.79,-12.05c6.98,0 12.64,5.27 12.78,11.81l-9.48,1.3l6.38,6.82z" fill="#232323" id="svg_17"/>
   <path d="m283.08,646.05c12.93,2.69 23.47,3.6 31.76,2.63c8.03,-0.94 14.24,-3.58 19.79,-7.71c1.79,-1.34 5.84,-4.88 6.24,-5.16a7.49,7.49 0 0 0 1.68,-10.46a7.49,7.49 0 0 0 -10.47,-1.68c-1.1,0.8 -5.26,4.43 -6.42,5.29c-3.51,2.62 -7.27,4.22 -12.56,4.84c-6.44,0.75 -15.48,-0.03 -26.97,-2.42a7.49,7.49 0 1 0 -3.05,14.67z" fill="#524F75" id="svg_18"/>
   <path d="m541.39,385.07c49.15,-12.39 80.84,-51.34 72.51,-71.23c-8.33,-19.89 -58.66,14.65 -107.81,27.04c-49.15,12.38 -116.3,20.83 -107.96,40.73c8.34,19.89 94.11,15.84 143.26,3.47z" fill="#FFD04F" id="svg_19"/>
   <path d="m538.3,392.34c-25.37,5.87 -59.33,8.83 -87.77,7.63c-33.9,-1.44 -56.48,-8.16 -60.86,-22.25c-3.77,-12.14 5.76,-20.8 24.44,-27.38c12.41,-4.37 24.73,-7.13 55.78,-13.12l4.61,-0.89c12.63,-2.45 20.63,-4.09 28.41,-5.89c6.12,-1.41 12.57,-3.29 19.57,-5.65c7.94,-2.67 15.69,-5.63 27,-10.19c27.62,-11.13 31.32,-12.53 40.42,-14.62c14.8,-3.4 25.61,-0.68 29.06,10.42c8.7,27.98 -31.71,70.64 -80.67,81.95zm-3.86,-12.41c21.29,-4.92 40.93,-16.35 54.69,-30.89c12.38,-13.07 18.09,-26.82 15.44,-35.31c-0.81,-2.61 -2.95,-3.15 -10.84,-1.34c-7.81,1.79 -11.6,3.23 -37.95,13.85c-11.58,4.67 -19.58,7.72 -27.88,10.52c-7.48,2.51 -14.45,4.54 -21.13,6.09c-8.02,1.85 -16.19,3.52 -29.01,6.01l-4.62,0.9c-30.1,5.81 -42.08,8.49 -53.4,12.47c-12.56,4.42 -16.87,8.34 -15.68,12.17c4.5,14.5 78.05,17.62 130.38,5.53z" fill="#524F75" id="svg_20"/>
   <path d="m472.53,379.58c33.84,-17.16 61.29,-48.9 55.91,-66.71c-5.38,-17.8 -42.34,-46.23 -115.53,-23.12c-73.19,23.11 -76.15,92.66 -67.74,118.84c8.42,26.2 93.49,-11.84 127.35,-29.01z" fill="#FD6B4D" id="svg_21"/>
   <path d="m400.4,285.36c20.57,13.44 41.19,26.41 51.96,37.5c9.11,9.37 20.96,26.37 35.54,50.99c2.66,4.49 -61.5,37.06 -62.89,33.89c-10.15,-23.15 -16.75,-41.83 -19.78,-56.05c-3.45,-16.16 -5.33,-44.74 -4.83,-66.33zm3.21,0c30.73,-7.8 55.48,-10.71 75.63,-9.42c20.15,1.29 36.29,18.56 57.35,37.11l-5.95,31.81c-17.9,-21.48 -33.18,-37.53 -45.85,-48.14c-8.85,-7.42 -24.75,-12.75 -47.69,-16.02c-9.9,-1.41 -20.97,5.29 -33.49,4.66zm-14.02,4.46c-19.22,37.53 -26.05,53.94 -23.2,70.22c2.85,16.28 8.22,37.51 16.1,63.7l-46.16,-6.63c-0.21,-4.94 -3.55,-9.29 -3.53,-13.89c0.07,-26.37 3.92,-47.26 11.54,-62.66c8.96,-18.1 23.14,-28.02 45.25,-50.74z" fill="#FF8B74" id="svg_22"/>
   <path d="m468.26,381.81c33.73,-14.77 61.97,-43.86 57.64,-61.24c-4.32,-17.37 -38.78,-46.57 -111,-28.09c-72.22,18.47 -78.6,85.13 -71.75,110.72c6.86,25.59 91.38,-6.62 125.11,-21.39zm-68.92,40.35c-15.43,3.94 -28.49,5.94 -39.05,5.55c-15.81,-0.59 -27.89,-6.72 -31.61,-20.63c-5.04,-18.78 -3.05,-45.18 6.98,-67.95c13.1,-29.74 38.33,-51.65 75.53,-61.17c35.76,-9.15 66.32,-8.21 90.17,1.18c20.6,8.11 35.3,22.59 39.09,37.81c6.63,26.68 -25.99,60.99 -66.18,78.59c-23.79,10.41 -51.73,20.69 -74.93,26.62z" fill="#524F75" id="svg_23"/>
   <path d="m415.04,278.4a15.21,15.25 75 1 0 -29.45,7.89a15.21,15.25 75 1 0 29.45,-7.89z" fill="#FFD04F" id="svg_24"/>
   <path d="m405.55,301.86c-10.8,2.89 -21.89,-3.5 -24.78,-14.28c-2.89,-10.78 3.53,-21.86 14.32,-24.75c10.79,-2.89 21.89,3.5 24.78,14.27c2.89,10.78 -3.53,21.86 -14.32,24.76zm-2.59,-9.66a10.23,10.23 0 0 0 7.26,-12.51a10.23,10.23 0 0 0 -12.54,-7.21a10.23,10.23 0 0 0 -7.26,12.52a10.23,10.23 0 0 0 12.54,7.2z" fill="#524F75" id="svg_25"/>
   <path d="m377.07,614.92c-67.65,-6.42 -101.64,-5.01 -106.17,-25.89s41.27,-60.43 106.02,-82.18" fill="#3D96C8" id="svg_26"/>
   <path d="m396.8,616.25m-5.44,0a5.44,9.99 0 1 0 10.89,0a5.44,9.99 0 1 0 -10.89,0z" fill="#524F75" id="svg_28"/>
   <path d="m377.78,606.62c-61.21,-4.49 -96.87,0.28 -101.32,-18.43c-3.32,-13.94 37.82,-52.79 101.04,-75a6.64,7.49 0 1 0 -3.96,-14.3c-71.33,25.06 -121.46,67.81 -115.12,94.48c6.48,27.28 51.98,23.32 118.48,28.2a6.64,7.49 0 1 0 0.87,-14.95z" fill="#524F75" id="svg_27"/>
  </g>
 </g>
</svg>