<?xml version="1.0"?>
<svg width="1024" height="1024" xmlns="http://www.w3.org/2000/svg" xmlns:svg="http://www.w3.org/2000/svg" class="icon" version="1.1">

 <g class="layer">
  <title>Layer 1</title>
  <g id="svg_49">
   <g id="svg_29">
    <path d="m476.74,800.88l22.54,-21.55a2.28,2.51 0 0 0 -0.14,-3.92l-11.75,-9.63a2.36,2.6 0 0 0 -2.94,0.12c-23.05,19.79 -34.83,29.82 -35.34,30.11l-12.55,7.19a9.84,10.85 0 0 0 -3.27,3.04a9.65,10.64 0 0 0 1.94,15.04l55.56,45.89c0.7,0.57 1.63,0.67 2.41,0.26l11.61,-6.1c0.71,-0.37 1.11,-1.4 1.2,-3.08c-4.01,-12.99 -14.2,-27.35 -20.56,-34.16c-1.63,-1.74 -4.43,-4.34 -8.4,-7.82a9.06,9.99 0 0 1 -1.49,-14.03c0.35,-0.5 0.74,-0.95 1.17,-1.36z" fill="#FFC62E" id="svg_30" transform="rotate(-37.5665, 468.668, 816.47)"/>
    <path d="m445.56,785.35a1996.8,1996.8 0 0 0 7.37,-5.67c6.47,-5 16.04,-12.42 28.7,-22.27a10.09,10.09 0 0 1 12.41,-0.3l12.96,9.62a10,10 0 0 1 0.59,15.6l-24.86,21.55a2.5,2.5 0 0 0 0.09,3.85c4.56,3.61 7.81,6.36 9.84,8.32c9.66,9.36 20.27,24.54 24.55,37.11l0.48,1.4l-0.09,1.48c-0.25,4.12 -1.72,7.55 -5.58,9.39l-12.81,6.1a10.1,10.1 0 0 1 -10.37,-1.02l-61.27,-45.88a18.13,18.13 0 0 1 -3.63,-25.61a18.35,18.35 0 0 1 6.12,-5.13l13.41,-6.97c0.63,-0.47 1.26,-0.95 2.09,-1.57zm45.68,-16.44l-0.21,0.16c0.07,-0.05 0.14,-0.11 0.21,-0.16zm-9.01,57.89c-1.58,-1.52 -4.51,-4 -8.71,-7.33a17.48,17.48 0 0 1 -0.61,-26.91l20.18,-17.49l-4.99,-3.71c-27.73,21.57 -36.09,28.01 -37.29,28.64l-13.84,7.19a3.36,3.36 0 0 0 -1.12,0.94c-1.08,1.41 -0.8,3.38 0.68,4.48l58.91,44.12l5.95,-2.84c-4.2,-9.35 -12.14,-20.28 -19.16,-27.09z" fill="#524F75" id="svg_31" transform="rotate(-38.9973, 468.953, 813.814)"/>
    <path d="m618.88,783.45l-5.04,-43.97a2.24,2.24 0 0 0 -2.51,-2.24l-16.07,0.13c-1.67,0.19 -2.67,1.45 -2.51,2.85l2.45,86.8a9.74,9.74 0 0 0 0.41,4.63a9.55,9.55 0 0 0 13.52,6.98l73.41,-23.84c1.48,-0.61 2.11,-2.1 1.58,-3.39c-3.77,-8.71 -5.91,-13.14 -6.39,-13.29c-13.55,-3.98 -25.19,-5.03 -34.95,-3.13a66.75,66.75 0 0 0 -5.11,1.23l0,0a13.39,13.39 0 0 1 -18.79,-12.76z" fill="#FFC62E" id="svg_32" transform="rotate(19.2529, 638.52, 788.388)"/>
    <path d="m593.12,729.93l0.39,-0.05l16.46,-0.13a8.94,8.94 0 0 1 10.02,8.87l5.03,43.97a6.69,6.69 0 0 0 9.39,6.38a72.33,72.33 0 0 1 5.63,-1.35c11.07,-2.16 23.9,-1 38.5,3.31a6.56,6.56 0 0 1 3.24,1.91c0.37,0.35 0.66,0.7 0.94,1.08c0.3,0.42 0.59,0.87 0.89,1.39c0.43,0.74 0.93,1.73 1.54,2.99c1.11,2.32 2.63,5.68 4.62,10.29c2.11,5.23 -0.5,11 -5.69,13.13l-0.52,0.2l-73.41,23.82a16.24,16.24 0 0 1 -22.99,-11.85a16.25,16.25 0 0 1 -0.76,-7.17l-2.42,-86.07c-0.4,-5.48 3.66,-10.09 9.15,-10.72zm49.79,72.41c-1.09,0.21 -2.64,0.59 -4.6,1.12c-11.98,3.22 -24.32,-3.87 -27.55,-15.86a19.77,19.77 0 0 1 -0.63,-3.28l-4.53,-39.53l-6.52,0.05l2.32,82.56l-0.08,0.58c-0.06,0.49 -0.01,0.98 0.13,1.44a2.86,2.86 0 0 0 4.05,2.09l68.22,-22.15a152.96,152.96 0 0 0 -2.09,-4.55c-0.05,-0.09 -0.09,-0.19 -0.14,-0.28c-11.25,-3.03 -20.78,-3.71 -28.61,-2.19z" fill="#524F75" id="svg_33" transform="rotate(12.2197, 637.226, 788.501)"/>
    <path d="m373.52,740.72c28.68,17.62 90.11,29.19 142.22,29.68c21.89,0.2 61.47,-4.55 118.73,-14.25c33.99,-9.53 58.63,-22.16 62.59,-71.09c5.77,-71.15 6.71,-117.51 2.82,-139.1c-3.15,-17.48 -8.7,-48.07 -16.66,-91.76c-11.42,-62.78 -65.83,-108.38 -129.31,-108.38l-29.67,0c-63.06,0 -117.23,45.01 -129.11,107.28l-28.73,161.43c-2.42,13.58 -15.39,22.63 -28.97,20.22a25.03,25.03 0 0 1 -8.71,-3.32l-6.36,-3.91c-5.56,-2.87 -15.52,1.08 -19.34,7.02c-3.81,5.93 4.33,35.92 10.8,47.18c6.48,11.24 31.02,41.38 59.7,59z" fill="#3D96C8" id="svg_34"/>
    <path d="m372.19,744.51c-25.09,-15.41 -52.12,-44.02 -62.27,-61.66c-8.47,-14.72 -16.21,-46.25 -10.61,-54.97c5.85,-9.09 19.9,-14.35 29.07,-9.62l6.85,4.19a17.48,17.48 0 0 0 26.38,-11.82l28.75,-161.53c12.55,-65.79 69.81,-113.37 136.47,-113.37l29.67,0c67.1,0 124.61,48.2 136.68,114.54c7.96,43.7 13.51,74.29 16.66,91.77c4.05,22.46 3.1,69.22 -2.72,141.03c-2.03,25 -9.33,42.66 -22.32,55.12c-10.8,10.36 -24.29,16.58 -45.72,22.58c-58.45,9.95 -98.36,14.73 -120.83,14.52c-55.59,-0.51 -117.06,-12.96 -146.06,-30.78zm-59.94,-104.92c0.28,3.27 1.04,7.5 2.18,12.16c2.28,9.26 5.72,18.84 8.48,23.63c8.94,15.53 34.23,42.3 57.13,56.36c26.24,16.13 85.24,28.07 138.36,28.57c21.27,0.19 60.39,-4.49 117.02,-14.08c19.02,-5.36 30.46,-10.65 39.01,-18.86c10.12,-9.72 16,-23.94 17.75,-45.52c5.72,-70.47 6.64,-116.44 2.91,-137.16c-3.15,-17.48 -8.7,-48.06 -16.65,-91.75c-10.78,-59.21 -62.09,-102.22 -121.94,-102.22l-29.67,0c-59.46,0 -110.54,42.45 -121.73,101.1l-28.74,161.43c-3.14,17.66 -20,29.42 -37.65,26.28a32.4,32.4 0 0 1 -11.33,-4.32l-6.01,-3.69c-1.77,-0.66 -7,1.29 -9.16,4.05c-0.12,1.21 -0.1,2.47 0.04,4.02z" fill="#524F75" id="svg_35"/>
    <path d="m678.86,455.34a52914.73,52914.73 0 0 1 16.19,88.54c3.79,20.83 2.88,65.57 -2.73,134.22c-3.86,47.21 -27.81,59.4 -60.87,68.6c-55.69,9.35 -94.17,13.94 -115.47,13.74c-14.28,-0.13 -30.21,-1.51 -46.18,-3.64a38.42,38.42 0 0 1 8.38,-7.48c24.84,-16.37 40.28,-63.52 42.71,-78.3c4.94,-30.06 5.45,-66.57 5.12,-172.68c-0.18,-56.56 40.43,-105.01 96.15,-114.7a85.61,85.61 0 0 1 15.18,-1.28a127.17,127.17 0 0 1 41.52,72.98z" fill="#FFFFFF" id="svg_36"/>
    <path d="m658.91,561.9c12.43,-1 23.18,-1.38 42.38,-15.98c8,-6.09 22.5,-18.33 29.27,-26.73c6.41,-7.94 4.36,-17.55 0,-23.91c-8.96,-13.09 -22.37,-13.84 -37.56,-18.74c-5.83,-1.88 -19.29,-5.88 -36.52,-9.27c4.4,13.6 6.35,29.98 5.83,49.16c-0.46,16.73 -1.6,31.89 -3.4,45.47z" fill="#FFC62E" id="svg_40"/>
    <path d="m669.9,509.28c1.7,-14.58 1.82,-27.8 0.36,-39.68c9.36,2.96 17.74,6.03 24.42,8.78c1.85,0.75 3.74,1.48 5.94,2.29c0.84,0.31 1.71,0.62 2.82,1.02l2.7,0.97c12.94,4.66 17.93,7.72 21.94,14.61c3.08,5.27 2.95,10.87 -0.93,14.77c-6.09,6.14 -19.92,16.09 -31.04,22.87c-12.86,7.84 -21.23,10.5 -31.85,10.97c2.23,-11.21 4.1,-23.41 5.64,-36.6zm-14.97,51.62l1.63,0.02c2.24,0.02 3.42,0.03 4.79,0.02c14.79,-0.12 26.13,-3.22 42.56,-13.24c12.07,-7.35 26.74,-17.91 33.88,-25.11c9.15,-9.22 9.47,-22.2 3.23,-32.88c-6.29,-10.76 -13.81,-15.39 -29.81,-21.15l-2.72,-0.98c-1.08,-0.38 -1.91,-0.68 -2.71,-0.98a144.53,144.53 0 0 1 -5.4,-2.09c-9.85,-4.04 -23.01,-8.68 -37.61,-12.8c-5.5,-1.55 -10.65,3.4 -9.31,8.97c3.13,13.01 3.67,28.64 1.56,46.87c-1.91,16.38 -4.35,31.11 -7.33,44.2a7.49,7.49 0 0 0 7.24,9.15z" fill="#524F75" id="svg_41"/>
    <path d="m341.81,640.26c12.93,2.69 23.47,3.6 31.76,2.63c8.03,-0.94 14.24,-3.58 19.79,-7.71c1.79,-1.34 5.84,-4.88 6.24,-5.16a7.49,7.49 0 0 0 1.68,-10.46a7.49,7.49 0 0 0 -10.47,-1.68c-1.1,0.8 -5.26,4.43 -6.42,5.29c-3.51,2.62 -7.27,4.22 -12.56,4.84c-6.44,0.75 -15.48,-0.03 -26.97,-2.42a7.49,7.49 0 1 0 -3.05,14.67z" fill="#524F75" id="svg_45"/>
    <path d="m473.46,649.38c-67.65,-6.42 -101.64,-5.01 -106.17,-25.89s41.27,-60.43 106.02,-82.18" fill="#3D96C8" id="svg_46" transform="rotate(-52.7588, 420.224, 595.35)"/>
    <path d="m471.58,634.59c-61.21,-4.49 -98.17,-1.02 -102.62,-19.73c-3.32,-13.94 39.12,-51.49 102.34,-73.7a6.64,7.49 0 1 0 -3.96,-14.3c-71.33,25.06 -121.46,67.81 -115.12,94.48c6.48,27.28 51.98,23.32 118.48,28.2a6.64,7.49 0 1 0 0.87,-14.95z" fill="#524F75" id="svg_47" transform="rotate(-47.1534, 414.738, 588.03)"/>
   </g>
   <path d="m502.37,360.18l11.47,-57.82c4.75,16.28 9.51,32.56 14.26,48.84l9.17,-28.6l6.66,40.22l-41.56,-2.65z" fill="#3d96c8" id="svg_48" stroke="null" stroke-dasharray="null" stroke-linecap="null" stroke-linejoin="null" stroke-opacity="null" transform="rotate(-20.149, 528.888, 335.172)"/>
   <g id="svg_51">
    <path d="m593.06,475.61c51.26,-17.16 52.11,-17.03 54.67,-37.12c2.56,-20.08 -54.67,37.12 -54.67,37.12z" fill="#000000" id="svg_71" stroke="null" stroke-dasharray="null" stroke-linecap="null" stroke-linejoin="null" stroke-opacity="null" transform="rotate(22.6563, 620.441, 454.915)"/>
    <path d="m690.01,444.33l-35.41,-0.99l7.59,13.38l27.29,-0.45l0.52,-11.95z" fill="#000000" fill-opacity="null" id="svg_74" stroke="null" stroke-dasharray="null" stroke-linecap="null" stroke-linejoin="null" stroke-opacity="null"/>
   </g>
  </g>
 </g>
</svg>